<?xml version="1.0" encoding="utf-8"?>
<!-- Generator: Adobe Illustrator 26.5.0, SVG Export Plug-In . SVG Version: 6.00 Build 0)  -->
<svg version="1.1" id="Camada_1" xmlns="http://www.w3.org/2000/svg" xmlns:xlink="http://www.w3.org/1999/xlink" x="0px" y="0px"
	 viewBox="0 0 352.7 65.4" style="enable-background:new 0 0 352.7 65.4;" xml:space="preserve">
<style type="text/css">
	.st0{fill:#3d251e;}
</style>
<g id="background">
</g>
<path class="st0" d="M323.3,25.2c-0.8,2.9,4.2,5.6,8.3,7.2c0.5,0.2,1,0.4,1.4,0.5c-0.4,0.2-0.9,0.3-1.4,0.5c-4,1.6-9.1,4.3-8.3,7.2
	c-4.9-2.3-2.4-5.8,5.7-7.8C320.9,31.1,318.4,27.5,323.3,25.2z"/>
<g>
	<g>
		<path fill="#3d251e" class="st0" d="M36.9,48.2L33,43.5c0,0,0.8-7.5,16.4-9.7C49.4,33.8,36.7,37.4,36.9,48.2z"/>
		<path fill="#3d251e" class="st0" d="M36.9,17.2L33,21.9c0,0,0.8,7.5,16.4,9.7C49.4,31.6,36.7,28,36.9,17.2z"/>
	</g>
	<polygon fill="#3d251e" class="st0" points="19.7,32.7 26.3,35.9 41.9,32.7 26.3,29.6 	"/>
</g>
<g>
	<g>
		<path fill="#3d251e" class="st0" d="M63.2,36.5c-3.7,0-7.7-2.6-7.9-2.7c-0.3-0.2-0.4-0.5-0.4-0.8c0-0.3,0.2-0.6,0.4-0.8c0.2-0.1,5.3-3.4,9.2-2.6
			c1.7,0.3,2.8,1.7,2.8,3.3c0,1.7-1.1,3-2.8,3.3l0,0C64.1,36.4,63.6,36.5,63.2,36.5z M57.7,33c1.6,0.8,4.4,2,6.5,1.5l0,0
			c0.9-0.2,1.3-0.9,1.3-1.5s-0.3-1.3-1.3-1.5C62.1,31.1,59.4,32.1,57.7,33z"/>
	</g>
	<g>
		<path fill="#3d251e" class="st0" d="M315.2,36.5c-0.5,0-0.9,0-1.3-0.1c-1.7-0.3-2.8-1.7-2.8-3.3c0-1.7,1.1-3,2.8-3.4c4-0.8,9,2.4,9.2,2.6
			c0.3,0.2,0.4,0.5,0.4,0.8c0,0.3-0.2,0.6-0.4,0.8C322.9,33.9,318.8,36.5,315.2,36.5z M315.2,31.4c-0.3,0-0.7,0-1,0.1
			c-1,0.2-1.3,0.9-1.3,1.5c0,0.6,0.3,1.3,1.3,1.5l0,0c2,0.4,4.7-0.6,6.5-1.5C319.3,32.3,317.1,31.4,315.2,31.4z"/>
	</g>
	<g>
		<path fill="#3d251e" class="st0" d="M312,33.9H66.4c-0.5,0-0.9-0.4-0.9-0.9c0-0.5,0.4-0.9,0.9-0.9H312c0.5,0,0.9,0.4,0.9,0.9
			C312.9,33.5,312.5,33.9,312,33.9z"/>
	</g>
</g>
</svg>
